<svg width="120" height="50" viewBox="0 0 120 50" fill="none" xmlns="http://www.w3.org/2000/svg">
<path d="M13.0196 26.2935C13.0196 26.2935 25.3954 5.32836 43.5666 1.06629C59.4675 -2.66407 72.7799 4.13759 88.8389 9.98777C105.649 16.1211 117.624 9.09326 120 5.84442C120 5.84442 109.558 25.9741 86.2605 22.4961C67.1427 19.6407 40.3689 -0.734965 13.0173 26.2939" fill="#00FFFF"/>
<path d="M106.98 23.7055C106.98 23.7055 94.6059 44.6716 76.4347 48.9337C60.5338 52.6641 47.2214 45.8624 31.1638 40.0132C14.3525 33.8789 2.37615 40.9058 0 44.1546C0 44.1546 10.4418 24.0249 33.7395 27.503C52.8573 30.3583 79.6325 50.735 106.984 23.7061" fill="#00FFFF"/>
<path d="M63.6389 13.6461C63.7304 14.6422 63.0996 19.9974 62.777 23.9499C64.5321 20.5758 66.2389 15.1873 66.8468 14.351C67.6224 13.2839 69.3918 13.4101 70.4562 14.1837C71.009 14.5385 71.4069 15.0894 71.57 15.7257C71.7331 16.3619 71.6492 17.0363 71.3351 17.6132C70.7825 18.3735 66.2252 21.9205 63.5954 24.4224C66.6448 23.2672 72.0234 20.6657 73.0747 20.4982C73.7456 20.4678 74.4038 20.6879 74.9215 21.1157C75.4392 21.5434 75.7795 22.1483 75.8762 22.8129C75.973 23.4774 75.8193 24.1543 75.445 24.7119C75.0707 25.2695 74.5026 25.6681 73.8509 25.8303C72.8753 26.0508 67.5243 25.417 63.568 25.0996C67.0194 26.911 72.3097 28.4303 73.1421 29.0353C73.6228 29.5112 73.9129 30.1465 73.9577 30.8215C74.0026 31.4965 73.799 32.1646 73.3854 32.6999C73.0085 33.249 72.4403 33.6378 71.792 33.7901C71.1437 33.9425 70.4618 33.8474 69.8798 33.5236C69.1195 32.971 65.667 28.6005 63.0874 25.9123C64.3187 29.0169 66.8224 34.2103 67.0448 35.1833C67.0806 35.8603 66.8646 36.5266 66.4385 37.0539C66.0123 37.5812 65.4061 37.9322 64.7367 38.0392C64.0643 38.1673 63.3684 38.0301 62.7948 37.6566C62.2212 37.283 61.8145 36.702 61.6597 36.0352C61.4393 35.0596 62.0885 29.836 62.3559 25.9595C60.7333 29.3138 59.0814 34.624 58.5279 35.3856C58.0519 35.8663 57.4166 36.1564 56.7416 36.2012C56.0666 36.2461 55.3985 36.0425 54.8632 35.6289C54.3141 35.252 53.9254 34.6838 53.773 34.0355C53.6207 33.3871 53.7157 32.7053 54.0395 32.1233C54.5921 31.3631 59.1137 28.0224 61.6716 25.4622C58.6996 26.6737 53.2436 29.219 52.3236 29.3657C51.6451 29.383 50.9841 29.1493 50.4673 28.7093C49.9505 28.2693 49.6142 27.6541 49.523 26.9815C49.3919 26.3088 49.5278 25.6115 49.9018 25.0372C50.2759 24.4629 50.8587 24.0567 51.527 23.9046C52.371 23.7026 57.6671 24.4147 61.6221 24.7311C58.1918 23.0533 52.8595 21.2691 52.1033 20.7194C51.0362 19.9438 51.1624 18.1744 51.936 17.11C52.2907 16.5572 52.8416 16.1593 53.4779 15.9962C54.1142 15.8331 54.7886 15.917 55.3655 16.2311C56.1258 16.7837 59.4885 21.4375 62.1194 24.0468C60.6657 20.9306 59.3743 17.7412 58.2504 14.4915C58.2044 13.8288 58.4115 13.1732 58.8297 12.6571C59.248 12.141 59.8464 11.8026 60.5043 11.7103C61.1723 11.5879 61.862 11.7172 62.4403 12.0732C63.0187 12.4292 63.4448 12.9867 63.6365 13.6383" fill="#DEB300"/>
</svg>
